<svg width="478" height="382" viewBox="0 0 478 382" fill="none" xmlns="http://www.w3.org/2000/svg">
<circle opacity="0.5" cx="300.272" cy="162.102" r="162.102" fill="#BF7DE3"/>
<path opacity="0.5" d="M252.861 255.57C252.861 325.395 196.256 382 126.43 382C56.6048 382 0 325.395 0 255.57C0 185.744 56.6048 129.14 126.43 129.14C196.256 129.14 252.861 185.744 252.861 255.57Z" fill="#7DC3E3"/>
<path opacity="0.5" d="M255.57 129.139C255.57 186.995 208.466 233.896 150.362 233.896C92.2568 233.896 45.1536 186.995 45.1536 129.139C45.1536 71.2839 92.2568 24.3828 150.362 24.3828C208.466 24.3828 255.57 71.2839 255.57 129.139Z" fill="#FFA3C9"/>
<circle opacity="0.5" cx="351.296" cy="255.57" r="126.43" fill="#979BFA"/>
</svg>
