<svg width="184" height="53" viewBox="0 0 184 53" fill="none"
    xmlns="http://www.w3.org/2000/svg">
    <path d="M65.136 38V15.6H74.256C75.472 15.6 76.5707 15.9093 77.552 16.528C78.5547 17.1253 79.3547 17.9467 79.952 18.992C80.5493 20.0373 80.848 21.2 80.848 22.48C80.848 23.76 80.5493 24.9227 79.952 25.968C79.3547 27.0133 78.5547 27.856 77.552 28.496C76.5707 29.1147 75.472 29.424 74.256 29.424H68.592V38H65.136ZM68.592 26.096H74.192C74.768 26.096 75.2907 25.936 75.76 25.616C76.2293 25.2747 76.6027 24.8373 76.88 24.304C77.1787 23.7493 77.328 23.1413 77.328 22.48C77.328 21.8187 77.1787 21.2213 76.88 20.688C76.6027 20.1547 76.2293 19.728 75.76 19.408C75.2907 19.088 74.768 18.928 74.192 18.928H68.592V26.096ZM91.8248 38.32C90.1821 38.32 88.7101 37.9467 87.4088 37.2C86.1288 36.432 85.1154 35.3973 84.3688 34.096C83.6221 32.7733 83.2488 31.2693 83.2488 29.584C83.2488 27.8987 83.6221 26.4053 84.3688 25.104C85.1154 23.7813 86.1288 22.7467 87.4088 22C88.7101 21.232 90.1821 20.848 91.8248 20.848C93.4461 20.848 94.8968 21.232 96.1768 22C97.4781 22.7467 98.5021 23.7813 99.2488 25.104C99.9954 26.4053 100.369 27.8987 100.369 29.584C100.369 31.2693 99.9954 32.7733 99.2488 34.096C98.5021 35.3973 97.4781 36.432 96.1768 37.2C94.8968 37.9467 93.4461 38.32 91.8248 38.32ZM91.8248 35.312C92.8274 35.312 93.7234 35.0667 94.5128 34.576C95.3021 34.064 95.9208 33.3813 96.3688 32.528C96.8168 31.6533 97.0301 30.672 97.0088 29.584C97.0301 28.4747 96.8168 27.4933 96.3688 26.64C95.9208 25.7653 95.3021 25.0827 94.5128 24.592C93.7234 24.1013 92.8274 23.856 91.8248 23.856C90.8221 23.856 89.9154 24.112 89.1048 24.624C88.3154 25.1147 87.6968 25.7973 87.2488 26.672C86.8008 27.5253 86.5874 28.496 86.6088 29.584C86.5874 30.672 86.8008 31.6533 87.2488 32.528C87.6968 33.3813 88.3154 34.064 89.1048 34.576C89.9154 35.0667 90.8221 35.312 91.8248 35.312ZM103.96 38V21.2H107.288V26.48L106.968 25.2C107.203 24.3893 107.598 23.6533 108.152 22.992C108.728 22.3307 109.379 21.808 110.104 21.424C110.851 21.04 111.619 20.848 112.408 20.848C112.771 20.848 113.112 20.88 113.432 20.944C113.774 21.008 114.04 21.0827 114.232 21.168L113.368 24.752C113.112 24.6453 112.824 24.56 112.504 24.496C112.206 24.4107 111.907 24.368 111.608 24.368C111.032 24.368 110.478 24.4853 109.944 24.72C109.432 24.9333 108.974 25.2427 108.568 25.648C108.184 26.032 107.875 26.4907 107.64 27.024C107.406 27.536 107.288 28.1013 107.288 28.72V38H103.96ZM119.572 38V16.912H122.868V38H119.572ZM116.084 24.4V21.2H126.772V24.4H116.084ZM137.169 38.32C135.526 38.32 134.054 37.9467 132.753 37.2C131.473 36.432 130.459 35.3973 129.713 34.096C128.966 32.7733 128.593 31.2693 128.593 29.584C128.593 27.8987 128.966 26.4053 129.713 25.104C130.459 23.7813 131.473 22.7467 132.753 22C134.054 21.232 135.526 20.848 137.169 20.848C138.79 20.848 140.241 21.232 141.521 22C142.822 22.7467 143.846 23.7813 144.593 25.104C145.339 26.4053 145.713 27.8987 145.713 29.584C145.713 31.2693 145.339 32.7733 144.593 34.096C143.846 35.3973 142.822 36.432 141.521 37.2C140.241 37.9467 138.79 38.32 137.169 38.32ZM137.169 35.312C138.171 35.312 139.067 35.0667 139.857 34.576C140.646 34.064 141.265 33.3813 141.713 32.528C142.161 31.6533 142.374 30.672 142.353 29.584C142.374 28.4747 142.161 27.4933 141.713 26.64C141.265 25.7653 140.646 25.0827 139.857 24.592C139.067 24.1013 138.171 23.856 137.169 23.856C136.166 23.856 135.259 24.112 134.449 24.624C133.659 25.1147 133.041 25.7973 132.593 26.672C132.145 27.5253 131.931 28.496 131.953 29.584C131.931 30.672 132.145 31.6533 132.593 32.528C133.041 33.3813 133.659 34.064 134.449 34.576C135.259 35.0667 136.166 35.312 137.169 35.312ZM150.136 38V15.6H153.592V34.672H164.088V38H150.136ZM169.995 45.36L173.387 37.52L173.419 40.144L165.035 21.2H168.875L174.123 33.552C174.23 33.7653 174.358 34.096 174.507 34.544C174.656 34.9707 174.784 35.3973 174.891 35.824L174.059 36.016C174.23 35.568 174.39 35.12 174.539 34.672C174.71 34.224 174.87 33.776 175.019 33.328L179.403 21.2H183.307L176.395 38L173.547 45.36H169.995Z" fill="black"/>
    <circle opacity="0.5" cx="27.173" cy="18.827" r="18.827" fill="#BF7DE3"/>
    <path opacity="0.5" d="M22.7089 26.0084C22.7089 32.0828 17.7846 37.007 11.7103 37.007C5.63591 37.007 0.71167 32.0828 0.71167 26.0084C0.71167 19.9341 5.63591 15.0098 11.7103 15.0098C17.7846 15.0098 22.7089 19.9341 22.7089 26.0084Z" fill="#7DC3E3"/>
    <path opacity="0.5" d="M21.9972 10.9986C21.9972 17.0729 17.0729 21.9972 10.9986 21.9972C4.92424 21.9972 0 17.0729 0 10.9986C0 4.92424 4.92424 0 10.9986 0C17.0729 0 21.9972 4.92424 21.9972 10.9986Z" fill="#FFA3C9"/>
    <circle opacity="0.5" cx="10.9986" cy="41.4712" r="10.9986" fill="#979BFA"/>
</svg>
