<svg width="32" height="46" viewBox="0 0 46 53" fill="none" xmlns="http://www.w3.org/2000/svg">
<circle opacity="0.5" cx="27.173" cy="18.827" r="18.827" fill="#BF7DE3"/>
<path opacity="0.5" d="M22.7089 26.0084C22.7089 32.0828 17.7846 37.007 11.7103 37.007C5.63591 37.007 0.71167 32.0828 0.71167 26.0084C0.71167 19.9341 5.63591 15.0098 11.7103 15.0098C17.7846 15.0098 22.7089 19.9341 22.7089 26.0084Z" fill="#7DC3E3"/>
<path opacity="0.5" d="M21.9972 10.9986C21.9972 17.0729 17.0729 21.9972 10.9986 21.9972C4.92424 21.9972 0 17.0729 0 10.9986C0 4.92424 4.92424 0 10.9986 0C17.0729 0 21.9972 4.92424 21.9972 10.9986Z" fill="#FFA3C9"/>
<circle opacity="0.5" cx="10.9986" cy="41.4712" r="10.9986" fill="#979BFA"/>
</svg>
